{
  "accessors": [
    {
      "bufferView": 0,
      "componentType": 5126,
      "count": 2145,
      "max": [
        5.624083995819092,
        1.1240841150283813,
        3.0458834171295166
      ],
      "min": [
        3.3759100437164307,
        -1.1240899562835693,
        -0.0762299969792366
      ],
      "type": "VEC3"
    },
    {
      "bufferView": 1,
      "componentType": 5125,
      "count": 6098,
      "type": "SCALAR"
    },
    {
      "bufferView": 2,
      "componentType": 5126,
      "count": 2145,
      "type": "VEC3"
    },
    {
      "bufferView": 3,
      "componentType": 5126,
      "count": 2145,
      "type": "VEC4"
    },
    {
      "bufferView": 4,
      "componentType": 5126,
      "count": 2145,
      "type": "VEC2"
    },
    {
      "bufferView": 5,
      "componentType": 5126,
      "count": 2145,
      "max": [
        5.624083995819092,
        1.1240841150283813,
        3.0458834171295166
      ],
      "min": [
        3.3759100437164307,
        -1.1240899562835693,
        -0.0762299969792366
      ],
      "type": "VEC3"
    },
    {
      "bufferView": 6,
      "componentType": 5123,
      "count": 354,
      "type": "SCALAR"
    },
    {
      "bufferView": 7,
      "componentType": 5126,
      "count": 2145,
      "type": "VEC3"
    },
    {
      "bufferView": 8,
      "componentType": 5126,
      "count": 2145,
      "type": "VEC4"
    },
    {
      "bufferView": 9,
      "componentType": 5126,
      "count": 2145,
      "type": "VEC2"
    },
    {
      "bufferView": 10,
      "componentType": 5126,
      "count": 2145,
      "max": [
        2.6240880489349365,
        1.1240841150283813,
        3.0458834171295166
      ],
      "min": [
        0.3759140074253082,
        -1.1240899562835693,
        -0.0762299969792366
      ],
      "type": "VEC3"
    },
    {
      "bufferView": 11,
      "componentType": 5125,
      "count": 6098,
      "type": "SCALAR"
    },
    {
      "bufferView": 12,
      "componentType": 5126,
      "count": 2145,
      "type": "VEC3"
    },
    {
      "bufferView": 13,
      "componentType": 5126,
      "count": 2145,
      "type": "VEC4"
    },
    {
      "bufferView": 14,
      "componentType": 5126,
      "count": 2145,
      "type": "VEC2"
    },
    {
      "bufferView": 15,
      "componentType": 5126,
      "count": 2145,
      "max": [
        2.6240880489349365,
        1.1240841150283813,
        3.0458834171295166
      ],
      "min": [
        0.3759140074253082,
        -1.1240899562835693,
        -0.0762299969792366
      ],
      "type": "VEC3"
    },
    {
      "bufferView": 16,
      "componentType": 5123,
      "count": 354,
      "type": "SCALAR"
    },
    {
      "bufferView": 17,
      "componentType": 5126,
      "count": 2145,
      "type": "VEC3"
    },
    {
      "bufferView": 18,
      "componentType": 5126,
      "count": 2145,
      "type": "VEC4"
    },
    {
      "bufferView": 19,
      "componentType": 5126,
      "count": 2145,
      "type": "VEC2"
    },
    {
      "bufferView": 20,
      "componentType": 5126,
      "count": 2145,
      "max": [
        -0.37591588497161865,
        1.1240841150283813,
        3.0458834171295166
      ],
      "min": [
        -2.6240899562835693,
        -1.1240899562835693,
        -0.0762299969792366
      ],
      "type": "VEC3"
    },
    {
      "bufferView": 21,
      "componentType": 5125,
      "count": 6098,
      "type": "SCALAR"
    },
    {
      "bufferView": 22,
      "componentType": 5126,
      "count": 2145,
      "type": "VEC3"
    },
    {
      "bufferView": 23,
      "componentType": 5126,
      "count": 2145,
      "type": "VEC4"
    },
    {
      "bufferView": 24,
      "componentType": 5126,
      "count": 2145,
      "type": "VEC2"
    },
    {
      "bufferView": 25,
      "componentType": 5126,
      "count": 2145,
      "max": [
        -0.37591588497161865,
        1.1240841150283813,
        3.0458834171295166
      ],
      "min": [
        -2.6240899562835693,
        -1.1240899562835693,
        -0.0762299969792366
      ],
      "type": "VEC3"
    },
    {
      "bufferView": 26,
      "componentType": 5123,
      "count": 354,
      "type": "SCALAR"
    },
    {
      "bufferView": 27,
      "componentType": 5126,
      "count": 2145,
      "type": "VEC3"
    },
    {
      "bufferView": 28,
      "componentType": 5126,
      "count": 2145,
      "type": "VEC4"
    },
    {
      "bufferView": 29,
      "componentType": 5126,
      "count": 2145,
      "type": "VEC2"
    },
    {
      "bufferView": 30,
      "componentType": 5126,
      "count": 2145,
      "max": [
        -3.375916004180908,
        1.1240841150283813,
        3.0458834171295166
      ],
      "min": [
        -5.624090194702148,
        -1.1240899562835693,
        -0.0762299969792366
      ],
      "type": "VEC3"
    },
    {
      "bufferView": 31,
      "componentType": 5125,
      "count": 6098,
      "type": "SCALAR"
    },
    {
      "bufferView": 32,
      "componentType": 5126,
      "count": 2145,
      "type": "VEC3"
    },
    {
      "bufferView": 33,
      "componentType": 5126,
      "count": 2145,
      "type": "VEC4"
    },
    {
      "bufferView": 34,
      "componentType": 5126,
      "count": 2145,
      "type": "VEC2"
    },
    {
      "bufferView": 35,
      "componentType": 5126,
      "count": 2145,
      "max": [
        -3.375916004180908,
        1.1240841150283813,
        3.0458834171295166
      ],
      "min": [
        -5.624090194702148,
        -1.1240899562835693,
        -0.0762299969792366
      ],
      "type": "VEC3"
    },
    {
      "bufferView": 36,
      "componentType": 5123,
      "count": 354,
      "type": "SCALAR"
    },
    {
      "bufferView": 37,
      "componentType": 5126,
      "count": 2145,
      "type": "VEC3"
    },
    {
      "bufferView": 38,
      "componentType": 5126,
      "count": 2145,
      "type": "VEC4"
    },
    {
      "bufferView": 39,
      "componentType": 5126,
      "count": 2145,
      "type": "VEC2"
    }
  ],
  "asset": {
    "version": "2.0"
  },
  "bufferViews": [
    {
      "buffer": 0,
      "byteLength": 25740,
      "target": 34962
    },
    {
      "buffer": 1,
      "byteLength": 24392,
      "target": 34963
    },
    {
      "buffer": 2,
      "byteLength": 25740,
      "target": 34962
    },
    {
      "buffer": 3,
      "byteLength": 34320,
      "target": 34962
    },
    {
      "buffer": 4,
      "byteLength": 17160,
      "target": 34962
    },
    {
      "buffer": 0,
      "byteLength": 25740,
      "target": 34962
    },
    {
      "buffer": 5,
      "byteLength": 708,
      "target": 34963
    },
    {
      "buffer": 2,
      "byteLength": 25740,
      "target": 34962
    },
    {
      "buffer": 3,
      "byteLength": 34320,
      "target": 34962
    },
    {
      "buffer": 4,
      "byteLength": 17160,
      "target": 34962
    },
    {
      "buffer": 6,
      "byteLength": 25740,
      "target": 34962
    },
    {
      "buffer": 7,
      "byteLength": 24392,
      "target": 34963
    },
    {
      "buffer": 8,
      "byteLength": 25740,
      "target": 34962
    },
    {
      "buffer": 9,
      "byteLength": 34320,
      "target": 34962
    },
    {
      "buffer": 10,
      "byteLength": 17160,
      "target": 34962
    },
    {
      "buffer": 6,
      "byteLength": 25740,
      "target": 34962
    },
    {
      "buffer": 11,
      "byteLength": 708,
      "target": 34963
    },
    {
      "buffer": 8,
      "byteLength": 25740,
      "target": 34962
    },
    {
      "buffer": 9,
      "byteLength": 34320,
      "target": 34962
    },
    {
      "buffer": 10,
      "byteLength": 17160,
      "target": 34962
    },
    {
      "buffer": 12,
      "byteLength": 25740,
      "target": 34962
    },
    {
      "buffer": 13,
      "byteLength": 24392,
      "target": 34963
    },
    {
      "buffer": 14,
      "byteLength": 25740,
      "target": 34962
    },
    {
      "buffer": 15,
      "byteLength": 34320,
      "target": 34962
    },
    {
      "buffer": 16,
      "byteLength": 17160,
      "target": 34962
    },
    {
      "buffer": 12,
      "byteLength": 25740,
      "target": 34962
    },
    {
      "buffer": 17,
      "byteLength": 708,
      "target": 34963
    },
    {
      "buffer": 14,
      "byteLength": 25740,
      "target": 34962
    },
    {
      "buffer": 15,
      "byteLength": 34320,
      "target": 34962
    },
    {
      "buffer": 16,
      "byteLength": 17160,
      "target": 34962
    },
    {
      "buffer": 18,
      "byteLength": 25740,
      "target": 34962
    },
    {
      "buffer": 19,
      "byteLength": 24392,
      "target": 34963
    },
    {
      "buffer": 20,
      "byteLength": 25740,
      "target": 34962
    },
    {
      "buffer": 21,
      "byteLength": 34320,
      "target": 34962
    },
    {
      "buffer": 22,
      "byteLength": 17160,
      "target": 34962
    },
    {
      "buffer": 18,
      "byteLength": 25740,
      "target": 34962
    },
    {
      "buffer": 23,
      "byteLength": 708,
      "target": 34963
    },
    {
      "buffer": 20,
      "byteLength": 25740,
      "target": 34962
    },
    {
      "buffer": 21,
      "byteLength": 34320,
      "target": 34962
    },
    {
      "buffer": 22,
      "byteLength": 17160,
      "target": 34962
    }
  ],
  "buffers": [
    {
      "byteLength": 25740,
      "uri": "data:application/octet-stream;base64,"
    },
    {
      "byteLength": 24392,
      "uri": "data:application/octet-stream;base64,"
    },
    {
      "byteLength": 25740,
      "uri": "data:application/octet-stream;base64,"
    },
    {
      "byteLength": 34320,
      "uri": "data:application/octet-stream;base64,"
    },
    {
      "byteLength": 17160,
      "uri": "data:application/octet-stream;base64,"
    },
    {
      "byteLength": 708,
      "uri": "data:application/octet-stream;base64,"
    },
    {
      "byteLength": 25740,
      "uri": "data:application/octet-stream;base64,"
    },
    {
      "byteLength": 24392,
      "uri": "data:application/octet-stream;base64,"
    },
    {
      "byteLength": 25740,
      "uri": "data:application/octet-stream;base64,"
    },
    {
      "byteLength": 34320,
      "uri": "data:application/octet-stream;base64,"
    },
    {
      "byteLength": 17160,
      "uri": "data:application/octet-stream;base64,"
    },
    {
      "byteLength": 708,
      "uri": "data:application/octet-stream;base64,"
    },
    {
      "byteLength": 25740,
      "uri": "data:application/octet-stream;base64,"
    },
    {
      "byteLength": 24392,
      "uri": "data:application/octet-stream;base64,"
    },
    {
      "byteLength": 25740,
      "uri": "data:application/octet-stream;base64,"
    },
    {
      "byteLength": 34320,
      "uri": "data:application/octet-stream;base64,"
    },
    {
      "byteLength": 17160,
      "uri": "data:application/octet-stream;base64,"
    },
    {
      "byteLength": 708,
      "uri": "data:application/octet-stream;base64,"
    },
    {
      "byteLength": 25740,
      "uri": "data:application/octet-stream;base64,"
    },
    {
      "byteLength": 24392,
      "uri": "data:application/octet-stream;base64,"
    },
    {
      "byteLength": 25740,
      "uri": "data:application/octet-stream;base64,"
    },
    {
      "byteLength": 34320,
      "uri": "data:application/octet-stream;base64,"
    },
    {
      "byteLength": 17160,
      "uri": "data:application/octet-stream;base64,"
    },
    {
      "byteLength": 708,
      "uri": "data:application/octet-stream;base64,"
    }
  ],
  "materials": [
    {
      "doubleSided": true,
      "name": "EGG1_TEX",
      "pbrMetallicRoughness": {
        "baseColorFactor": [
          0.6399999856948853,
          0.6399999856948853,
          0.6399999856948853,
          1.0
        ]
      }
    }
  ],
  "meshes": [
    {
      "primitives": [
        {
          "attributes": {
            "NORMAL": 2,
            "POSITION": 0,
            "TANGENT": 3,
            "TEXCOORD_0": 4
          },
          "indices": 1,
          "material": 0,
          "mode": 5
        },
        {
          "attributes": {
            "NORMAL": 7,
            "POSITION": 5,
            "TANGENT": 8,
            "TEXCOORD_0": 9
          },
          "indices": 6,
          "material": 0,
          "mode": 4
        }
      ]
    },
    {
      "primitives": [
        {
          "attributes": {
            "NORMAL": 12,
            "POSITION": 10,
            "TANGENT": 13,
            "TEXCOORD_0": 14
          },
          "indices": 11,
          "material": 0,
          "mode": 5
        },
        {
          "attributes": {
            "NORMAL": 17,
            "POSITION": 15,
            "TANGENT": 18,
            "TEXCOORD_0": 19
          },
          "indices": 16,
          "material": 0,
          "mode": 4
        }
      ]
    },
    {
      "primitives": [
        {
          "attributes": {
            "NORMAL": 22,
            "POSITION": 20,
            "TANGENT": 23,
            "TEXCOORD_0": 24
          },
          "indices": 21,
          "material": 0,
          "mode": 5
        },
        {
          "attributes": {
            "NORMAL": 27,
            "POSITION": 25,
            "TANGENT": 28,
            "TEXCOORD_0": 29
          },
          "indices": 26,
          "material": 0,
          "mode": 4
        }
      ]
    },
    {
      "primitives": [
        {
          "attributes": {
            "NORMAL": 32,
            "POSITION": 30,
            "TANGENT": 33,
            "TEXCOORD_0": 34
          },
          "indices": 31,
          "material": 0,
          "mode": 5
        },
        {
          "attributes": {
            "NORMAL": 37,
            "POSITION": 35,
            "TANGENT": 38,
            "TEXCOORD_0": 39
          },
          "indices": 36,
          "material": 0,
          "mode": 4
        }
      ]
    }
  ],
  "nodes": [
    {
      "mesh": 0,
      "name": "_gltfNode_0"
    },
    {
      "mesh": 1,
      "name": "_gltfNode_1"
    },
    {
      "mesh": 2,
      "name": "_gltfNode_2"
    },
    {
      "mesh": 3,
      "name": "_gltfNode_3"
    },
    {
      "children": [
        0,
        1,
        2,
        3
      ],
      "name": "GLTF Converted Scene",
      "rotation": [
        -0.7071067811865475,
        0.0,
        0.0,
        0.7071067811865476
      ],
      "scale": [
        1.0,
        1.0,
        1.0
      ],
      "translation": [
        0.0,
        0.0,
        0.0
      ]
    }
  ],
  "scene": 0,
  "scenes": [
    {
      "nodes": [
        4
      ]
    }
  ]
}
